<?xml version="1.0" encoding="UTF-8" standalone="no"?>
<!-- Created with Inkscape (http://www.inkscape.org/) -->

<svg
   width="260mm"
   height="260mm"
   viewBox="0 0 260 260"
   version="1.1"
   id="svg5"
   inkscape:version="1.2.1 (9c6d41e, 2022-07-14)"
   sodipodi:docname="logo.svg"
   inkscape:export-filename="logo.png"
   inkscape:export-xdpi="25.00923"
   inkscape:export-ydpi="25.00923"
   xmlns:inkscape="http://www.inkscape.org/namespaces/inkscape"
   xmlns:sodipodi="http://sodipodi.sourceforge.net/DTD/sodipodi-0.dtd"
   xmlns="http://www.w3.org/2000/svg"
   xmlns:svg="http://www.w3.org/2000/svg">
  <sodipodi:namedview
     id="namedview7"
     pagecolor="#ffffff"
     bordercolor="#000000"
     borderopacity="0.25"
     inkscape:showpageshadow="2"
     inkscape:pageopacity="0.0"
     inkscape:pagecheckerboard="0"
     inkscape:deskcolor="#d1d1d1"
     inkscape:document-units="mm"
     showgrid="false"
     inkscape:zoom="0.38122342"
     inkscape:cx="696.442"
     inkscape:cy="693.81886"
     inkscape:window-width="1470"
     inkscape:window-height="847"
     inkscape:window-x="0"
     inkscape:window-y="37"
     inkscape:window-maximized="0"
     inkscape:current-layer="layer1" />
  <defs
     id="defs2">
    <rect
       x="315.95224"
       y="49.148129"
       width="921.52734"
       height="198.34779"
       id="rect427" />
    <rect
       x="315.95224"
       y="49.148129"
       width="612.36005"
       height="48.32568"
       id="rect427-9" />
  </defs>
  <g
     inkscape:label="Layer 1"
     inkscape:groupmode="layer"
     id="layer1">
    <path
       id="path290-9-5"
       style="fill:#0f25ff;fill-opacity:0.387205;stroke-width:1.6486"
       d="m 257.79356,147.25572 c 0,27.37922 -26.37078,49.57443 -58.90067,49.57445 -32.52977,0 -58.90052,-22.19523 -58.90052,-49.57445 0,-27.37923 37.40889,-65.53254 58.90052,-89.893918 21.00128,24.774292 58.90067,62.514698 58.90067,89.893918 z"
       sodipodi:nodetypes="ssscs" />
    <path
       id="path585-5"
       style="fill:#ffffff;fill-opacity:0.360269;stroke-width:1.41045"
       d="m 246.55562,161.12139 c 2.26577,3.57039 -7.66727,16.91688 -22.18598,23.44339 -14.51861,6.52651 -35.97424,6.85837 -38.23984,3.28797 -2.26567,-3.57041 11.83719,-10.10391 26.3558,-16.63042 14.51861,-6.52651 31.80442,-13.67132 34.07002,-10.10094 z"
       sodipodi:nodetypes="sssss" />
    <path
       id="path290-9-9-3"
       style="fill:#008000;fill-opacity:0.6;stroke-width:1.26818"
       d="m 163.09797,219.52239 c 0,20.27667 -21.07087,36.71415 -47.06308,36.71415 -25.992181,0 -47.063006,-16.43748 -47.063006,-36.71415 0,-20.27669 29.890535,-48.53252 47.063006,-66.57422 16.7805,18.3475 47.06308,46.29753 47.06308,66.57422 z"
       sodipodi:nodetypes="ssscs" />
    <path
       id="path585-9-5"
       style="fill:#f3ffc3;fill-opacity:0.387205;stroke-width:1.08499"
       d="m 154.11862,229.79111 c 1.81035,2.64419 -6.12639,12.52841 -17.72716,17.36187 -11.60079,4.83344 -28.74443,5.07922 -30.55475,2.43503 -1.81028,-2.6442 9.45833,-7.48283 21.05908,-12.31628 11.60078,-4.83344 25.41249,-10.1248 27.22283,-7.48062 z"
       sodipodi:nodetypes="sssss" />
    <path
       id="path290-9-9"
       style="fill:#ffd100;fill-opacity:0.666667;stroke-width:1.26818"
       d="m 96.419769,145.51302 c 0,20.27668 -21.070861,36.71416 -47.063056,36.71416 -25.992195,0 -47.0630585,-16.43748 -47.0630585,-36.71416 0,-20.2767 29.8905875,-48.532544 47.0630585,-66.574223 16.780501,18.347479 47.063056,46.297523 47.063056,66.574223 z"
       sodipodi:nodetypes="ssscs" />
    <path
       id="path585-9"
       style="fill:#fcffe6;fill-opacity:0.552189;stroke-width:1.08499"
       d="m 87.440442,155.81008 c 1.810317,2.64419 -6.126417,12.52842 -17.727191,17.36188 -11.600754,4.83344 -28.744405,5.07922 -30.554702,2.43503 -1.81029,-2.6442 9.458304,-7.48283 21.059078,-12.31628 11.600741,-4.83345 25.412475,-10.12481 27.222815,-7.48063 z"
       sodipodi:nodetypes="sssss" />
    <path
       id="path290-9"
       style="fill:#ff6666;fill-opacity:0.7;stroke-width:1.26818"
       d="m 165.22413,71.587043 c 0,20.276658 -21.07086,36.714127 -47.06307,36.714147 -25.992231,0 -47.063099,-16.437489 -47.063099,-36.714147 0,-20.276658 29.890579,-48.53247 47.063099,-66.5741561 16.7805,18.3474821 47.06307,46.2975011 47.06307,66.5741561 z"
       sodipodi:nodetypes="ssscs" />
    <path
       id="path585"
       style="fill:#ffc3c3;fill-opacity:0.7;stroke-width:1.08499"
       d="m 156.2448,81.855767 c 1.81037,2.644174 -6.12638,12.528393 -17.72714,17.361843 -11.60082,4.83345 -28.74447,5.07923 -30.55478,2.43503 -1.81032,-2.64419 9.45833,-7.482823 21.0591,-12.316263 11.60076,-4.833445 25.41249,-10.124788 27.22282,-7.48061 z"
       sodipodi:nodetypes="sssss" />
  </g>
</svg>
