<?xml version="1.0" encoding="UTF-8" standalone="no"?>
<!-- Created with Inkscape (http://www.inkscape.org/) -->

<svg
   width="150mm"
   height="250mm"
   viewBox="0 0 150 250"
   version="1.1"
   id="svg5"
   inkscape:version="1.2.1 (9c6d41e, 2022-07-14)"
   sodipodi:docname="traffic-light copy 2.svg"
   inkscape:export-filename="traffic-light.png"
   inkscape:export-xdpi="96"
   inkscape:export-ydpi="96"
   xmlns:inkscape="http://www.inkscape.org/namespaces/inkscape"
   xmlns:sodipodi="http://sodipodi.sourceforge.net/DTD/sodipodi-0.dtd"
   xmlns="http://www.w3.org/2000/svg"
   xmlns:svg="http://www.w3.org/2000/svg">
  <sodipodi:namedview
     id="namedview7"
     pagecolor="#ffffff"
     bordercolor="#000000"
     borderopacity="0.25"
     inkscape:showpageshadow="2"
     inkscape:pageopacity="0.0"
     inkscape:pagecheckerboard="0"
     inkscape:deskcolor="#d1d1d1"
     inkscape:document-units="mm"
     showgrid="false"
     inkscape:zoom="0.61070747"
     inkscape:cx="-135.08923"
     inkscape:cy="398.7179"
     inkscape:window-width="2880"
     inkscape:window-height="1523"
     inkscape:window-x="0"
     inkscape:window-y="25"
     inkscape:window-maximized="1"
     inkscape:current-layer="layer1" />
  <defs
     id="defs2" />
  <g
     inkscape:label="Layer 1"
     inkscape:groupmode="layer"
     id="layer1">
    <g
       id="g1738"
       transform="rotate(-15.904359,-43.258415,61.217764)">
      <g
         id="g1766">
        <path
           id="path290-9-9-3"
           style="fill:#008000;fill-opacity:0.933333;stroke-width:0.793999"
           d="m 92.136836,165.13713 c 0,14.37338 -11.651914,26.0253 -26.025275,26.0253 -14.373351,0 -26.025255,-11.65192 -26.025255,-26.0253 0,-14.3734 16.529101,-34.40291 26.025255,-47.192 9.279404,13.00586 26.025275,32.8186 26.025275,47.192 z"
           sodipodi:nodetypes="ssscs" />
        <path
           id="path585-9-5"
           style="fill:#88aa00;fill-opacity:0.93266;stroke-width:0.679303"
           d="m 87.171379,172.41624 c 1.00109,1.87437 -3.387817,8.88093 -9.802904,12.30719 -6.415077,3.42625 -15.895291,3.60047 -16.896371,1.7261 -1.00106,-1.87437 5.230327,-5.3043 11.645394,-8.73055 6.415077,-3.42625 14.052791,-7.1771 15.053881,-5.30274 z"
           sodipodi:nodetypes="sssss" />
      </g>
    </g>
    <g
       id="g1745"
       transform="rotate(21.876125,32.495168,63.50483)">
      <path
         id="path290-9-9"
         style="fill:#ffd100;fill-opacity:0.933333;stroke-width:0.793999"
         d="m 92.484926,109.8219 c 0,14.37338 -11.651914,26.0253 -26.025275,26.0253 -14.373356,0 -26.02527,-11.65192 -26.02527,-26.0253 0,-14.373387 16.529111,-34.402895 26.02527,-47.191978 9.279404,13.005853 26.025275,32.818591 26.025275,47.191978 z"
         sodipodi:nodetypes="ssscs" />
      <path
         id="path585-9"
         style="fill:#ffe680;fill-opacity:0.93266;stroke-width:0.679303"
         d="m 87.519469,117.10101 c 1.00109,1.87437 -3.38782,8.88093 -9.802904,12.30719 -6.415077,3.42625 -15.895295,3.60047 -16.896369,1.7261 -1.001067,-1.87437 5.230325,-5.3043 11.645392,-8.73055 6.415074,-3.42625 14.052791,-7.1771 15.053881,-5.30274 z"
         sodipodi:nodetypes="sssss" />
    </g>
    <g
       id="g1749">
      <path
         id="path290-9"
         style="fill:#ff0000;fill-opacity:0.93266;stroke-width:0.793999"
         d="m 92.202496,60.124633 c 0,14.373372 -11.651914,26.025286 -26.025275,26.025296 -14.373374,0 -26.025296,-11.651924 -26.025296,-26.025296 0,-14.373374 16.529117,-34.402874 26.025296,-47.191961 9.279404,13.005855 26.025275,32.818589 26.025275,47.191961 z"
         sodipodi:nodetypes="ssscs" />
      <path
         id="path585"
         style="fill:#ff8080;fill-opacity:0.93266;stroke-width:0.679303"
         d="m 87.237039,67.403751 c 1.0011,1.874357 -3.387807,8.880914 -9.802894,12.307171 -6.415087,3.42625 -15.895311,3.60047 -16.896387,1.7261 -1.001076,-1.87437 5.230333,-5.304297 11.64541,-8.730544 6.415067,-3.42625 14.052781,-7.177087 15.053871,-5.302727 z"
         sodipodi:nodetypes="sssss" />
    </g>
  </g>
</svg>
